<?xml version="1.0" encoding="UTF-8" standalone="no"?>
<!DOCTYPE svg PUBLIC "-//W3C//DTD SVG 1.1//EN"
 "http://www.w3.org/Graphics/SVG/1.1/DTD/svg11.dtd">
<!-- Generated by graphviz version 2.38.0 (20140413.2041)
 -->
<!-- Title: finite_state_machine Pages: 1 -->
<svg width="322pt" height="360pt"
 viewBox="0.00 0.00 322.13 360.00" xmlns="http://www.w3.org/2000/svg" xmlns:xlink="http://www.w3.org/1999/xlink">
<g id="graph0" class="graph" transform="scale(0.346202 0.346202) rotate(0) translate(4 1035.85)">
<title>finite_state_machine</title>
<polygon fill="white" stroke="none" points="-4,4 -4,-1035.85 926.458,-1035.85 926.458,4 -4,4"/>
<!-- Gdead -->
<g id="node1" class="node"><title>Gdead</title>
<ellipse fill="none" stroke="black" cx="37.1871" cy="-567.854" rx="33.3548" ry="33.3548"/>
<ellipse fill="none" stroke="black" cx="37.1871" cy="-567.854" rx="37.3751" ry="37.3751"/>
<text text-anchor="middle" x="37.1871" y="-563.654" font-family="Times,serif" font-size="14.00">Gdead</text>
</g>
<!-- Grunnable -->
<g id="node5" class="node"><title>Grunnable</title>
<ellipse fill="none" stroke="black" cx="272.337" cy="-678.854" rx="47.365" ry="47.365"/>
<text text-anchor="middle" x="272.337" y="-674.654" font-family="Times,serif" font-size="14.00">Grunnable</text>
</g>
<!-- Gdead&#45;&gt;Grunnable -->
<g id="edge10" class="edge"><title>Gdead&#45;&gt;Grunnable</title>
<path fill="none" stroke="black" d="M71.0972,-583.522C109.85,-601.972 174.674,-632.834 220.038,-654.431"/>
<polygon fill="black" stroke="black" points="218.588,-657.617 229.121,-658.756 221.597,-651.297 218.588,-657.617"/>
<text text-anchor="middle" x="143.497" y="-642.654" font-family="Times,serif" font-size="14.00">runtime.newproc1</text>
</g>
<!-- start -->
<g id="node2" class="node"><title>start</title>
<ellipse fill="black" stroke="black" cx="37.1871" cy="-773.854" rx="1.8" ry="1.8"/>
</g>
<!-- Gidle -->
<g id="node3" class="node"><title>Gidle</title>
<ellipse fill="none" stroke="black" cx="272.337" cy="-773.854" rx="29.5104" ry="29.5104"/>
<text text-anchor="middle" x="272.337" y="-769.654" font-family="Times,serif" font-size="14.00">Gidle</text>
</g>
<!-- start&#45;&gt;Gidle -->
<g id="edge1" class="edge"><title>start&#45;&gt;Gidle</title>
<path fill="none" stroke="black" d="M39.2265,-773.854C51.493,-773.854 169.32,-773.854 232.214,-773.854"/>
<polygon fill="black" stroke="black" points="232.547,-777.354 242.547,-773.854 232.547,-770.354 232.547,-777.354"/>
<text text-anchor="middle" x="143.497" y="-776.654" font-family="Times,serif" font-size="14.00">newg</text>
</g>
<!-- Gwaiting -->
<g id="node4" class="node"><title>Gwaiting</title>
<ellipse fill="none" stroke="black" cx="870.604" cy="-587.854" rx="43.0387" ry="43.0387"/>
<text text-anchor="middle" x="870.604" y="-583.654" font-family="Times,serif" font-size="14.00">Gwaiting</text>
</g>
<!-- Gwaiting&#45;&gt;Grunnable -->
<g id="edge2" class="edge"><title>Gwaiting&#45;&gt;Grunnable</title>
<path fill="none" stroke="black" d="M867.079,-630.783C861.343,-711.636 844.281,-881.643 800.749,-917.854 646.755,-1045.95 496.491,-1054.53 350.054,-917.854 320.181,-889.973 349.959,-771.586 332.054,-734.854 328.495,-727.553 323.561,-720.701 318.052,-714.464"/>
<polygon fill="black" stroke="black" points="320.266,-711.716 310.826,-706.908 315.207,-716.554 320.266,-711.716"/>
<text text-anchor="middle" x="555.68" y="-1020.65" font-family="Times,serif" font-size="14.00">findRunnableGCWorker</text>
</g>
<!-- Gwaiting&#45;&gt;Grunnable -->
<g id="edge3" class="edge"><title>Gwaiting&#45;&gt;Grunnable</title>
<path fill="none" stroke="black" d="M865.347,-630.676C857.328,-701.569 837.404,-838.446 800.749,-867.854 722.63,-930.53 424.507,-934.845 350.054,-867.854 327.883,-847.905 345.609,-761.421 332.054,-734.854 328.363,-727.62 323.356,-720.803 317.813,-714.584"/>
<polygon fill="black" stroke="black" points="320.016,-711.825 310.564,-707.038 314.968,-716.674 320.016,-711.825"/>
<text text-anchor="middle" x="555.68" y="-919.654" font-family="Times,serif" font-size="14.00">runtime.ready</text>
</g>
<!-- Gwaiting&#45;&gt;Grunnable -->
<g id="edge4" class="edge"><title>Gwaiting&#45;&gt;Grunnable</title>
<path fill="none" stroke="black" d="M862.89,-630.619C852.504,-690.644 830.584,-795.114 800.749,-817.854 721.095,-878.568 427.095,-881.851 350.054,-817.854 321.019,-793.735 350.525,-767.773 332.054,-734.854 328.128,-727.857 323.043,-721.202 317.509,-715.083"/>
<polygon fill="black" stroke="black" points="319.777,-712.393 310.312,-707.633 314.742,-717.257 319.777,-712.393"/>
<text text-anchor="middle" x="555.68" y="-867.654" font-family="Times,serif" font-size="14.00">runtime.findrunnable</text>
</g>
<!-- Gwaiting&#45;&gt;Grunnable -->
<g id="edge5" class="edge"><title>Gwaiting&#45;&gt;Grunnable</title>
<path fill="none" stroke="black" d="M866.384,-630.998C860.66,-673.625 844.777,-736.817 800.749,-767.854 718.89,-825.56 435.424,-820.228 350.054,-767.854 335.814,-759.118 342.221,-748.111 332.054,-734.854 327.292,-728.645 321.833,-722.494 316.202,-716.668"/>
<polygon fill="black" stroke="black" points="318.564,-714.08 309.018,-709.482 313.613,-719.029 318.564,-714.08"/>
<text text-anchor="middle" x="555.68" y="-812.654" font-family="Times,serif" font-size="14.00">runtime.injectglist</text>
</g>
<!-- Gwaiting&#45;&gt;Grunnable -->
<g id="edge6" class="edge"><title>Gwaiting&#45;&gt;Grunnable</title>
<path fill="none" stroke="black" d="M859.567,-629.635C849.916,-659.815 832.042,-698.532 800.749,-717.854 715.531,-770.474 447.102,-742.605 350.054,-717.854 340.813,-715.497 331.411,-711.891 322.503,-707.806"/>
<polygon fill="black" stroke="black" points="323.951,-704.618 313.426,-703.407 320.898,-710.917 323.951,-704.618"/>
<text text-anchor="middle" x="555.68" y="-750.654" font-family="Times,serif" font-size="14.00">runtime.schedule</text>
</g>
<!-- Gwaiting&#45;&gt;Grunnable -->
<g id="edge7" class="edge"><title>Gwaiting&#45;&gt;Grunnable</title>
<path fill="none" stroke="black" d="M854.064,-627.666C842.915,-650.317 825.464,-676.719 800.749,-689.854 720.596,-732.454 448.358,-702.488 329.557,-686.792"/>
<polygon fill="black" stroke="black" points="329.944,-683.313 319.569,-685.458 329.017,-690.251 329.944,-683.313"/>
<text text-anchor="middle" x="555.68" y="-714.654" font-family="Times,serif" font-size="14.00">runtime.park_m</text>
</g>
<!-- Gwaiting&#45;&gt;Grunnable -->
<g id="edge11" class="edge"><title>Gwaiting&#45;&gt;Grunnable</title>
<path fill="none" stroke="black" d="M846.98,-624.309C835.257,-639.766 819.462,-656.185 800.749,-664.854 759.017,-684.189 458.109,-681.802 330.405,-679.877"/>
<polygon fill="black" stroke="black" points="330.108,-676.372 320.055,-679.716 329.999,-683.371 330.108,-676.372"/>
<text text-anchor="middle" x="555.68" y="-684.654" font-family="Times,serif" font-size="14.00">runtime.procresize</text>
</g>
<!-- Gwaiting&#45;&gt;Grunnable -->
<g id="edge12" class="edge"><title>Gwaiting&#45;&gt;Grunnable</title>
<path fill="none" stroke="black" d="M838.652,-617.19C827.527,-626.029 814.348,-634.735 800.749,-639.854 735.409,-664.452 557.043,-657.697 487.416,-662.854 433.909,-666.818 372.883,-671.383 329.714,-674.62"/>
<polygon fill="black" stroke="black" points="329.4,-671.134 319.689,-675.372 329.923,-678.114 329.4,-671.134"/>
<text text-anchor="middle" x="555.68" y="-665.654" font-family="Times,serif" font-size="14.00">runtime.checkdead</text>
</g>
<!-- Grunning -->
<g id="node6" class="node"><title>Grunning</title>
<ellipse fill="none" stroke="black" cx="555.68" cy="-402.854" rx="44.0078" ry="44.0078"/>
<text text-anchor="middle" x="555.68" y="-398.654" font-family="Times,serif" font-size="14.00">Grunning</text>
</g>
<!-- Gwaiting&#45;&gt;Grunning -->
<g id="edge14" class="edge"><title>Gwaiting&#45;&gt;Grunning</title>
<path fill="none" stroke="black" d="M827.243,-588.469C769.872,-588.518 671.259,-585.592 641.944,-565.854 604.129,-540.393 581.976,-492.647 569.775,-455.385"/>
<polygon fill="black" stroke="black" points="573.062,-454.17 566.739,-445.67 566.381,-456.258 573.062,-454.17"/>
<text text-anchor="middle" x="721.347" y="-591.654" font-family="Times,serif" font-size="14.00">runtime.gcMarkTermination</text>
</g>
<!-- Gwaiting&#45;&gt;Grunning -->
<g id="edge15" class="edge"><title>Gwaiting&#45;&gt;Grunning</title>
<path fill="none" stroke="black" d="M834.471,-563.769C824.029,-557.644 812.287,-551.712 800.749,-547.854 733.335,-525.313 702.638,-565.856 641.944,-528.854 612.969,-511.19 591.602,-479.521 577.505,-452.353"/>
<polygon fill="black" stroke="black" points="580.602,-450.72 573.002,-443.339 574.339,-453.849 580.602,-450.72"/>
<text text-anchor="middle" x="721.347" y="-550.654" font-family="Times,serif" font-size="14.00">runtime.gcBgMarkWorker</text>
</g>
<!-- Gwaiting&#45;&gt;Grunning -->
<g id="edge16" class="edge"><title>Gwaiting&#45;&gt;Grunning</title>
<path fill="none" stroke="black" d="M846.288,-551.779C834.519,-536.599 818.882,-520.297 800.749,-510.854 737.703,-478.021 705.545,-523.6 641.944,-491.854 621.213,-481.507 602.765,-463.99 588.378,-447.22"/>
<polygon fill="black" stroke="black" points="590.719,-444.558 581.649,-439.082 585.324,-449.019 590.719,-444.558"/>
<text text-anchor="middle" x="721.347" y="-513.654" font-family="Times,serif" font-size="14.00">runtime.markroot</text>
</g>
<!-- Gwaiting&#45;&gt;Grunning -->
<g id="edge17" class="edge"><title>Gwaiting&#45;&gt;Grunning</title>
<path fill="none" stroke="black" d="M855.814,-547.433C844.949,-522.017 827.168,-490.909 800.749,-473.854 741.03,-435.3 709.114,-478.114 641.944,-454.854 627.567,-449.876 613.028,-442.201 600.128,-434.262"/>
<polygon fill="black" stroke="black" points="601.795,-431.175 591.48,-428.755 598.034,-437.079 601.795,-431.175"/>
<text text-anchor="middle" x="721.347" y="-476.654" font-family="Times,serif" font-size="14.00">runtime.gcAssistAlloc1</text>
</g>
<!-- Gwaiting&#45;&gt;Grunning -->
<g id="edge18" class="edge"><title>Gwaiting&#45;&gt;Grunning</title>
<path fill="none" stroke="black" d="M862.084,-545.439C853.521,-510.445 835.877,-462.522 800.749,-436.854 772.052,-415.885 677.104,-423.046 641.944,-417.854 631.352,-416.29 620.053,-414.435 609.26,-412.572"/>
<polygon fill="black" stroke="black" points="609.562,-409.072 599.108,-410.793 608.353,-415.967 609.562,-409.072"/>
<text text-anchor="middle" x="721.347" y="-439.654" font-family="Times,serif" font-size="14.00">runtime.newstack</text>
</g>
<!-- Grunnable&#45;&gt;Grunning -->
<g id="edge13" class="edge"><title>Grunnable&#45;&gt;Grunning</title>
<path fill="none" stroke="black" d="M294.704,-636.999C307.815,-615.473 326.601,-590.706 350.054,-575.854 395.77,-546.904 425.525,-583.503 469.416,-551.854 502.42,-528.056 524.472,-487.264 537.866,-454.373"/>
<polygon fill="black" stroke="black" points="541.194,-455.475 541.582,-444.887 534.676,-452.922 541.194,-455.475"/>
<text text-anchor="middle" x="409.735" y="-578.654" font-family="Times,serif" font-size="14.00">runtime.execute</text>
</g>
<!-- Grunning&#45;&gt;Gdead -->
<g id="edge28" class="edge"><title>Grunning&#45;&gt;Gdead</title>
<path fill="none" stroke="black" d="M513.452,-416.025C417.758,-446.596 181.232,-522.157 82.5462,-553.683"/>
<polygon fill="black" stroke="black" points="81.3382,-550.395 72.8776,-556.772 83.4685,-557.063 81.3382,-550.395"/>
<text text-anchor="middle" x="272.337" y="-512.654" font-family="Times,serif" font-size="14.00">runtime.goexit0</text>
</g>
<!-- Grunning&#45;&gt;Gwaiting -->
<g id="edge22" class="edge"><title>Grunning&#45;&gt;Gwaiting</title>
<path fill="none" stroke="black" d="M571.528,-444.192C591.982,-499.996 627.89,-593.568 641.944,-602.854 695.232,-638.065 771.715,-622.967 821.029,-606.968"/>
<polygon fill="black" stroke="black" points="822.157,-610.281 830.515,-603.771 819.921,-603.648 822.157,-610.281"/>
<text text-anchor="middle" x="721.347" y="-627.654" font-family="Times,serif" font-size="14.00">runtime.markroot</text>
</g>
<!-- Grunning&#45;&gt;Gwaiting -->
<g id="edge23" class="edge"><title>Grunning&#45;&gt;Gwaiting</title>
<path fill="none" stroke="black" d="M599.41,-396.543C660.622,-388.454 769.356,-377.919 800.749,-399.854 843.969,-430.052 860.145,-490.467 866.152,-534.689"/>
<polygon fill="black" stroke="black" points="862.689,-535.206 867.378,-544.706 869.637,-534.355 862.689,-535.206"/>
<text text-anchor="middle" x="721.347" y="-402.654" font-family="Times,serif" font-size="14.00">runtime.gcAssistAlloc1</text>
</g>
<!-- Grunning&#45;&gt;Gwaiting -->
<g id="edge24" class="edge"><title>Grunning&#45;&gt;Gwaiting</title>
<path fill="none" stroke="black" d="M594.622,-382.34C646.395,-357.457 739.7,-324.053 800.749,-368.854 852.261,-406.656 866.259,-482.995 869.526,-534.781"/>
<polygon fill="black" stroke="black" points="866.032,-534.987 870.044,-544.792 873.022,-534.625 866.032,-534.987"/>
<text text-anchor="middle" x="721.347" y="-371.654" font-family="Times,serif" font-size="14.00">runtime.park_m</text>
</g>
<!-- Grunning&#45;&gt;Gwaiting -->
<g id="edge25" class="edge"><title>Grunning&#45;&gt;Gwaiting</title>
<path fill="none" stroke="black" d="M584.648,-369.357C599.798,-353.857 619.91,-337.082 641.944,-328.854 675.004,-316.508 772.773,-307.343 800.749,-328.854 833.202,-353.806 853.573,-466.828 863.138,-535.056"/>
<polygon fill="black" stroke="black" points="859.701,-535.759 864.526,-545.192 866.637,-534.809 859.701,-535.759"/>
<text text-anchor="middle" x="721.347" y="-331.654" font-family="Times,serif" font-size="14.00">runtime.gcMarkTermination</text>
</g>
<!-- Grunning&#45;&gt;Gwaiting -->
<g id="edge26" class="edge"><title>Grunning&#45;&gt;Gwaiting</title>
<path fill="none" stroke="black" d="M576.724,-364.152C591.301,-340.522 613.454,-312.338 641.944,-298.854 705.74,-268.661 745.359,-255.11 800.749,-298.854 837.282,-327.706 856.529,-459.557 864.703,-534.811"/>
<polygon fill="black" stroke="black" points="861.252,-535.46 865.784,-545.037 868.213,-534.724 861.252,-535.46"/>
<text text-anchor="middle" x="721.347" y="-301.654" font-family="Times,serif" font-size="14.00">runtime.gcBgMarkWorker</text>
</g>
<!-- Grunning&#45;&gt;Gwaiting -->
<g id="edge27" class="edge"><title>Grunning&#45;&gt;Gwaiting</title>
<path fill="none" stroke="black" d="M568.059,-360.314C580.044,-324.848 602.755,-276.581 641.944,-253.854 672.472,-236.15 773.392,-231.561 800.749,-253.854 843.53,-288.715 860.517,-449.921 866.59,-534.974"/>
<polygon fill="black" stroke="black" points="863.099,-535.219 867.278,-544.955 870.082,-534.738 863.099,-535.219"/>
<text text-anchor="middle" x="721.347" y="-256.654" font-family="Times,serif" font-size="14.00">runtime.newstack</text>
</g>
<!-- Grunning&#45;&gt;Grunnable -->
<g id="edge8" class="edge"><title>Grunning&#45;&gt;Grunnable</title>
<path fill="none" stroke="black" d="M534.53,-441.64C519.778,-466.146 497.467,-496.381 469.416,-513.854 423.487,-542.465 393.603,-505.736 350.054,-537.854 321.418,-558.974 302.262,-594.101 290.254,-624.01"/>
<polygon fill="black" stroke="black" points="286.922,-622.923 286.604,-633.513 293.457,-625.433 286.922,-622.923"/>
<text text-anchor="middle" x="409.735" y="-540.654" font-family="Times,serif" font-size="14.00">runtime.goschedImpl</text>
</g>
<!-- Gsyscall -->
<g id="node7" class="node"><title>Gsyscall</title>
<ellipse fill="none" stroke="black" cx="870.604" cy="-167.854" rx="40.6248" ry="40.6248"/>
<text text-anchor="middle" x="870.604" y="-163.654" font-family="Times,serif" font-size="14.00">Gsyscall</text>
</g>
<!-- Grunning&#45;&gt;Gsyscall -->
<g id="edge29" class="edge"><title>Grunning&#45;&gt;Gsyscall</title>
<path fill="none" stroke="black" d="M564.829,-359.417C575.164,-317.101 597.312,-254.392 641.944,-220.854 699.064,-177.932 731.911,-214.994 800.749,-195.854 808.355,-193.74 816.257,-191.037 823.88,-188.148"/>
<polygon fill="black" stroke="black" points="825.322,-191.341 833.343,-184.419 822.756,-184.829 825.322,-191.341"/>
<text text-anchor="middle" x="721.347" y="-223.654" font-family="Times,serif" font-size="14.00">runtime.reentersyscall</text>
</g>
<!-- Grunning&#45;&gt;Gsyscall -->
<g id="edge30" class="edge"><title>Grunning&#45;&gt;Gsyscall</title>
<path fill="none" stroke="black" d="M559.496,-358.758C565.467,-306.047 584.066,-219.72 641.944,-177.854 669.311,-158.058 761.45,-160.221 819.782,-163.856"/>
<polygon fill="black" stroke="black" points="819.694,-167.358 829.902,-164.523 820.154,-160.373 819.694,-167.358"/>
<text text-anchor="middle" x="721.347" y="-180.654" font-family="Times,serif" font-size="14.00">runtime.entersyscallblock</text>
</g>
<!-- Gcopystack -->
<g id="node8" class="node"><title>Gcopystack</title>
<ellipse fill="none" stroke="black" cx="870.604" cy="-51.8542" rx="51.7088" ry="51.7088"/>
<text text-anchor="middle" x="870.604" y="-47.6542" font-family="Times,serif" font-size="14.00">Gcopystack</text>
</g>
<!-- Grunning&#45;&gt;Gcopystack -->
<g id="edge31" class="edge"><title>Grunning&#45;&gt;Gcopystack</title>
<path fill="none" stroke="black" d="M563.658,-359.372C576.351,-285.673 605.319,-140.808 641.944,-105.854 665.66,-83.22 749.975,-67.6605 809.044,-59.2525"/>
<polygon fill="black" stroke="black" points="809.603,-62.7086 819.026,-57.8651 808.639,-55.7753 809.603,-62.7086"/>
<text text-anchor="middle" x="721.347" y="-108.654" font-family="Times,serif" font-size="14.00">runtime.newstack</text>
</g>
<!-- Gsyscall&#45;&gt;Grunnable -->
<g id="edge9" class="edge"><title>Gsyscall&#45;&gt;Grunnable</title>
<path fill="none" stroke="black" d="M838.123,-143.055C826.959,-135.706 813.891,-128.621 800.749,-124.854 732.901,-105.408 707.57,-98.878 641.944,-124.854 476.502,-190.339 431.875,-240.852 350.054,-398.854 323.434,-450.259 346.642,-471.834 332.054,-527.854 323.266,-561.602 309.217,-598.08 297.065,-626.727"/>
<polygon fill="black" stroke="black" points="293.759,-625.557 293.027,-636.126 300.19,-628.32 293.759,-625.557"/>
<text text-anchor="middle" x="555.68" y="-209.654" font-family="Times,serif" font-size="14.00">runtime.exitsyscall0</text>
</g>
<!-- Gsyscall&#45;&gt;Grunning -->
<g id="edge19" class="edge"><title>Gsyscall&#45;&gt;Grunning</title>
<path fill="none" stroke="black" d="M833.815,-150.695C785.456,-130.279 698.772,-103.784 641.944,-144.854 577.789,-191.22 561.104,-287.643 557.223,-348.586"/>
<polygon fill="black" stroke="black" points="553.716,-348.615 556.671,-358.79 560.706,-348.993 553.716,-348.615"/>
<text text-anchor="middle" x="721.347" y="-147.654" font-family="Times,serif" font-size="14.00">runtime.exitsyscall</text>
</g>
<!-- Gcopystack&#45;&gt;Grunning -->
<g id="edge20" class="edge"><title>Gcopystack&#45;&gt;Grunning</title>
<path fill="none" stroke="black" d="M821.624,-34.1767C771.172,-18.9772 692.266,-5.27561 641.944,-45.8542 612.56,-69.5483 632.444,-92.0774 623.944,-128.854 606.083,-206.129 583.906,-295.268 570.019,-350.348"/>
<polygon fill="black" stroke="black" points="566.58,-349.673 567.526,-360.226 573.367,-351.387 566.58,-349.673"/>
<text text-anchor="middle" x="721.347" y="-48.6542" font-family="Times,serif" font-size="14.00">runtime.newstack</text>
</g>
<!-- Gscanrunning -->
<g id="node9" class="node"><title>Gscanrunning</title>
<ellipse fill="none" stroke="black" cx="272.337" cy="-402.854" rx="59.9357" ry="59.9357"/>
<text text-anchor="middle" x="272.337" y="-398.654" font-family="Times,serif" font-size="14.00">Gscanrunning</text>
</g>
<!-- Gscanrunning&#45;&gt;Grunning -->
<g id="edge21" class="edge"><title>Gscanrunning&#45;&gt;Grunning</title>
<path fill="none" stroke="black" d="M332.315,-402.854C382.154,-402.854 452.928,-402.854 501.155,-402.854"/>
<polygon fill="black" stroke="black" points="501.39,-406.354 511.39,-402.854 501.39,-399.354 501.39,-406.354"/>
<text text-anchor="middle" x="409.735" y="-405.654" font-family="Times,serif" font-size="14.00">runtime.scang</text>
</g>
</g>
</svg>
