<?xml version="1.0" encoding="UTF-8" standalone="no"?>
<!DOCTYPE svg PUBLIC "-//W3C//DTD SVG 1.1//EN"
 "http://www.w3.org/Graphics/SVG/1.1/DTD/svg11.dtd">
<!-- Generated by graphviz version 2.38.0 (20140413.2041)
 -->
<!-- Title: finite_state_machine Pages: 1 -->
<svg width="558pt" height="360pt"
 viewBox="0.00 0.00 558.45 360.00" xmlns="http://www.w3.org/2000/svg" xmlns:xlink="http://www.w3.org/1999/xlink">
<g id="graph0" class="graph" transform="scale(0.588766 0.588766) rotate(0) translate(4 607.448)">
<title>finite_state_machine</title>
<polygon fill="white" stroke="none" points="-4,4 -4,-607.448 944.506,-607.448 944.506,4 -4,4"/>
<!-- start -->
<g id="node1" class="node"><title>start</title>
<ellipse fill="black" stroke="black" cx="1.8" cy="-538.448" rx="1.8" ry="1.8"/>
</g>
<!-- Gidle -->
<g id="node2" class="node"><title>Gidle</title>
<ellipse fill="none" stroke="black" cx="99.6784" cy="-538.448" rx="29.5104" ry="29.5104"/>
<text text-anchor="middle" x="99.6784" y="-534.248" font-family="Times,serif" font-size="14.00">Gidle</text>
</g>
<!-- start&#45;&gt;Gidle -->
<g id="edge1" class="edge"><title>start&#45;&gt;Gidle</title>
<path fill="none" stroke="black" d="M3.87676,-538.448C9.46819,-538.448 35.836,-538.448 59.3476,-538.448"/>
<polygon fill="black" stroke="black" points="59.5212,-541.948 69.5212,-538.448 59.5212,-534.948 59.5212,-541.948"/>
<text text-anchor="middle" x="36.7621" y="-541.248" font-family="Times,serif" font-size="14.00">newg</text>
</g>
<!-- Gdead -->
<g id="node7" class="node"><title>Gdead</title>
<ellipse fill="none" stroke="black" cx="288.034" cy="-538.448" rx="33.3752" ry="33.3752"/>
<text text-anchor="middle" x="288.034" y="-534.248" font-family="Times,serif" font-size="14.00">Gdead</text>
</g>
<!-- Gidle&#45;&gt;Gdead -->
<g id="edge21" class="edge"><title>Gidle&#45;&gt;Gdead</title>
<path fill="none" stroke="black" d="M129.796,-538.448C160.504,-538.448 209.201,-538.448 244.269,-538.448"/>
<polygon fill="black" stroke="black" points="244.68,-541.948 254.679,-538.448 244.679,-534.948 244.68,-541.948"/>
<text text-anchor="middle" x="192.14" y="-541.248" font-family="Times,serif" font-size="14.00">oneNewExtraM</text>
</g>
<!-- Gidle&#45;&gt;Gdead -->
<g id="edge23" class="edge"><title>Gidle&#45;&gt;Gdead</title>
<path fill="none" stroke="black" d="M127.382,-526.241C133.817,-523.843 140.762,-521.688 147.433,-520.448 186.503,-513.187 197.695,-513.64 236.847,-520.448 240.326,-521.053 243.884,-521.878 247.418,-522.843"/>
<polygon fill="black" stroke="black" points="246.648,-526.268 257.235,-525.87 248.711,-519.579 246.648,-526.268"/>
<text text-anchor="middle" x="192.14" y="-523.248" font-family="Times,serif" font-size="14.00">newproc1</text>
</g>
<!-- Gwaiting -->
<g id="node3" class="node"><title>Gwaiting</title>
<ellipse fill="none" stroke="black" cx="888.652" cy="-126.448" rx="43.0387" ry="43.0387"/>
<text text-anchor="middle" x="888.652" y="-122.248" font-family="Times,serif" font-size="14.00">Gwaiting</text>
</g>
<!-- Grunnable -->
<g id="node4" class="node"><title>Grunnable</title>
<ellipse fill="none" stroke="black" cx="459.853" cy="-139.448" rx="47.365" ry="47.365"/>
<text text-anchor="middle" x="459.853" y="-135.248" font-family="Times,serif" font-size="14.00">Grunnable</text>
</g>
<!-- Gwaiting&#45;&gt;Grunnable -->
<g id="edge2" class="edge"><title>Gwaiting&#45;&gt;Grunnable</title>
<path fill="none" stroke="black" d="M845.333,-126.607C811.774,-126.818 763.685,-127.308 721.611,-128.448 651.334,-130.353 570.46,-133.99 517.648,-136.559"/>
<polygon fill="black" stroke="black" points="517.288,-133.073 507.471,-137.058 517.631,-140.064 517.288,-133.073"/>
<text text-anchor="middle" x="659.607" y="-135.248" font-family="Times,serif" font-size="14.00">ready</text>
</g>
<!-- Gwaiting&#45;&gt;Grunnable -->
<g id="edge3" class="edge"><title>Gwaiting&#45;&gt;Grunnable</title>
<path fill="none" stroke="black" d="M845.643,-120.374C792.141,-113.501 696.873,-104.155 615.603,-111.448 582.399,-114.428 545.665,-120.935 516.321,-126.927"/>
<polygon fill="black" stroke="black" points="515.345,-123.555 506.268,-129.018 516.771,-130.408 515.345,-123.555"/>
<text text-anchor="middle" x="659.607" y="-114.248" font-family="Times,serif" font-size="14.00">findrunnable</text>
</g>
<!-- Gwaiting&#45;&gt;Grunnable -->
<g id="edge4" class="edge"><title>Gwaiting&#45;&gt;Grunnable</title>
<path fill="none" stroke="black" d="M847.499,-113.665C838.147,-111.001 828.18,-108.41 818.798,-106.448 730.16,-87.9176 705.671,-82.0771 615.603,-91.4484 574.804,-95.6934 564.285,-97.7345 525.286,-110.448 521.038,-111.833 516.695,-113.411 512.369,-115.099"/>
<polygon fill="black" stroke="black" points="510.905,-111.916 502.971,-118.937 513.552,-118.396 510.905,-111.916"/>
<text text-anchor="middle" x="659.607" y="-94.2484" font-family="Times,serif" font-size="14.00">injectglist</text>
</g>
<!-- Gwaiting&#45;&gt;Grunnable -->
<g id="edge5" class="edge"><title>Gwaiting&#45;&gt;Grunnable</title>
<path fill="none" stroke="black" d="M852.893,-102.104C842.363,-95.7539 830.481,-89.549 818.798,-85.4484 733.321,-55.4478 705.654,-59.5972 615.603,-69.4484 574.734,-73.9193 562.502,-71.9763 525.286,-89.4484 518.076,-92.8331 510.924,-97.1444 504.152,-101.812"/>
<polygon fill="black" stroke="black" points="501.84,-99.1649 495.803,-107.871 505.952,-104.83 501.84,-99.1649"/>
<text text-anchor="middle" x="659.607" y="-72.2484" font-family="Times,serif" font-size="14.00">schedule</text>
</g>
<!-- Gwaiting&#45;&gt;Grunnable -->
<g id="edge6" class="edge"><title>Gwaiting&#45;&gt;Grunnable</title>
<path fill="none" stroke="black" d="M861.48,-93.0271C849.801,-80.4441 835.013,-67.2937 818.798,-59.4484 737.283,-20.0096 705.455,-33.1874 615.603,-44.4484 574.503,-49.5995 560.705,-45.9714 525.286,-67.4484 514.194,-74.1739 503.924,-83.4057 494.992,-93.0162"/>
<polygon fill="black" stroke="black" points="492.138,-90.9589 488.125,-100.764 497.377,-95.6019 492.138,-90.9589"/>
<text text-anchor="middle" x="659.607" y="-47.2484" font-family="Times,serif" font-size="14.00">park_m</text>
</g>
<!-- Gwaiting&#45;&gt;Grunnable -->
<g id="edge10" class="edge"><title>Gwaiting&#45;&gt;Grunnable</title>
<path fill="none" stroke="black" d="M869.986,-87.6044C858.452,-66.8478 841.331,-42.8704 818.798,-29.4484 741.027,16.8769 705.173,-2.3466 615.603,-15.4484 574.148,-21.5122 558.954,-17.5129 525.286,-42.4484 509.385,-54.2252 496.224,-71.1756 486.033,-87.6221"/>
<polygon fill="black" stroke="black" points="482.759,-86.2826 480.678,-96.6712 488.783,-89.8476 482.759,-86.2826"/>
<text text-anchor="middle" x="659.607" y="-18.2484" font-family="Times,serif" font-size="14.00">procresize</text>
</g>
<!-- Gwaiting&#45;&gt;Grunnable -->
<g id="edge11" class="edge"><title>Gwaiting&#45;&gt;Grunnable</title>
<path fill="none" stroke="black" d="M846.139,-133.426C808.937,-139.305 752.807,-147.254 703.611,-150.448 664.579,-152.983 654.717,-150.665 615.603,-150.448 575.46,-150.226 565.293,-152.757 525.286,-149.448 522.577,-149.224 519.808,-148.954 517.017,-148.649"/>
<polygon fill="black" stroke="black" points="517.216,-145.147 506.865,-147.407 516.366,-152.095 517.216,-145.147"/>
<text text-anchor="middle" x="659.607" y="-155.248" font-family="Times,serif" font-size="14.00">checkdead</text>
</g>
<!-- Grunning -->
<g id="node5" class="node"><title>Grunning</title>
<ellipse fill="none" stroke="black" cx="659.607" cy="-320.448" rx="44.0078" ry="44.0078"/>
<text text-anchor="middle" x="659.607" y="-316.248" font-family="Times,serif" font-size="14.00">Grunning</text>
</g>
<!-- Gwaiting&#45;&gt;Grunning -->
<g id="edge13" class="edge"><title>Gwaiting&#45;&gt;Grunning</title>
<path fill="none" stroke="black" d="M869.199,-165.23C857.508,-185.785 840.49,-209.755 818.798,-224.448 782.047,-249.341 759.37,-224.114 721.611,-247.448 709.967,-254.644 699.469,-264.831 690.595,-275.319"/>
<polygon fill="black" stroke="black" points="687.673,-273.367 684.133,-283.353 693.128,-277.754 687.673,-273.367"/>
<text text-anchor="middle" x="770.204" y="-250.248" font-family="Times,serif" font-size="14.00">markroot</text>
</g>
<!-- Gwaiting&#45;&gt;Grunning -->
<g id="edge14" class="edge"><title>Gwaiting&#45;&gt;Grunning</title>
<path fill="none" stroke="black" d="M859.069,-157.96C847.57,-168.862 833.544,-180.16 818.798,-187.448 779.342,-206.949 757.011,-180.297 721.611,-206.448 700.837,-221.795 686.413,-246.376 676.828,-268.79"/>
<polygon fill="black" stroke="black" points="673.515,-267.648 673.012,-278.231 680.005,-270.271 673.515,-267.648"/>
<text text-anchor="middle" x="770.204" y="-209.248" font-family="Times,serif" font-size="14.00">newstack</text>
</g>
<!-- Grunnable&#45;&gt;Grunning -->
<g id="edge12" class="edge"><title>Grunnable&#45;&gt;Grunning</title>
<path fill="none" stroke="black" d="M474.265,-184.937C484.385,-212.317 500.785,-246.089 525.286,-268.448 547.823,-289.016 579.419,-301.817 606.196,-309.57"/>
<polygon fill="black" stroke="black" points="605.625,-313.042 616.194,-312.3 607.469,-306.289 605.625,-313.042"/>
<text text-anchor="middle" x="561.445" y="-309.248" font-family="Times,serif" font-size="14.00">execute</text>
</g>
<!-- Grunning&#45;&gt;Gwaiting -->
<g id="edge17" class="edge"><title>Grunning&#45;&gt;Gwaiting</title>
<path fill="none" stroke="black" d="M696.792,-296.701C704.745,-292.169 713.283,-287.801 721.611,-284.448 762.786,-267.871 783.89,-288.865 818.798,-261.448 845.567,-240.424 862.865,-206.171 873.427,-177.429"/>
<polygon fill="black" stroke="black" points="876.755,-178.516 876.755,-167.921 870.148,-176.203 876.755,-178.516"/>
<text text-anchor="middle" x="770.204" y="-287.248" font-family="Times,serif" font-size="14.00">markroot</text>
</g>
<!-- Grunning&#45;&gt;Gwaiting -->
<g id="edge18" class="edge"><title>Grunning&#45;&gt;Gwaiting</title>
<path fill="none" stroke="black" d="M676.098,-279.358C692.632,-235.941 717.072,-173.194 721.611,-169.448 755.556,-141.435 776.313,-161.943 818.798,-150.448 825.053,-148.756 831.559,-146.781 837.966,-144.704"/>
<polygon fill="black" stroke="black" points="839.529,-147.872 847.903,-141.382 837.309,-141.233 839.529,-147.872"/>
<text text-anchor="middle" x="770.204" y="-172.248" font-family="Times,serif" font-size="14.00">park_m</text>
</g>
<!-- Grunning&#45;&gt;Gwaiting -->
<g id="edge19" class="edge"><title>Grunning&#45;&gt;Gwaiting</title>
<path fill="none" stroke="black" d="M703.745,-316.681C747.442,-312.513 809.845,-305.455 818.798,-298.448 855.418,-269.785 872.636,-218.637 880.687,-179.543"/>
<polygon fill="black" stroke="black" points="884.191,-179.856 882.633,-169.377 877.316,-178.54 884.191,-179.856"/>
<text text-anchor="middle" x="770.204" y="-318.248" font-family="Times,serif" font-size="14.00">newstack</text>
</g>
<!-- Grunning&#45;&gt;Grunnable -->
<g id="edge7" class="edge"><title>Grunning&#45;&gt;Grunnable</title>
<path fill="none" stroke="black" d="M630.415,-287.237C620.503,-276.313 608.987,-264.422 597.603,-254.448 568.021,-228.531 555.414,-228.729 525.286,-203.448 516.871,-196.387 508.264,-188.429 500.193,-180.586"/>
<polygon fill="black" stroke="black" points="502.529,-177.974 492.952,-173.443 497.613,-182.958 502.529,-177.974"/>
<text text-anchor="middle" x="561.445" y="-257.248" font-family="Times,serif" font-size="14.00">goschedImpl</text>
</g>
<!-- Gsyscall -->
<g id="node6" class="node"><title>Gsyscall</title>
<ellipse fill="none" stroke="black" cx="888.652" cy="-519.448" rx="40.6248" ry="40.6248"/>
<text text-anchor="middle" x="888.652" y="-515.248" font-family="Times,serif" font-size="14.00">Gsyscall</text>
</g>
<!-- Grunning&#45;&gt;Gsyscall -->
<g id="edge24" class="edge"><title>Grunning&#45;&gt;Gsyscall</title>
<path fill="none" stroke="black" d="M681.047,-359.042C691.266,-374.943 705.017,-392.232 721.611,-403.448 758.562,-428.424 781.673,-403.73 818.798,-428.448 836.632,-440.323 851.686,-458.405 863.126,-475.331"/>
<polygon fill="black" stroke="black" points="860.396,-477.553 868.775,-484.037 866.268,-473.743 860.396,-477.553"/>
<text text-anchor="middle" x="770.204" y="-431.248" font-family="Times,serif" font-size="14.00">reentersyscall</text>
</g>
<!-- Grunning&#45;&gt;Gsyscall -->
<g id="edge25" class="edge"><title>Grunning&#45;&gt;Gsyscall</title>
<path fill="none" stroke="black" d="M665.432,-364.419C671.881,-401.573 686.874,-453.404 721.611,-483.448 726.119,-487.347 791.13,-500.675 838.443,-509.97"/>
<polygon fill="black" stroke="black" points="838.055,-513.46 848.541,-511.946 839.399,-506.591 838.055,-513.46"/>
<text text-anchor="middle" x="770.204" y="-509.248" font-family="Times,serif" font-size="14.00">entersyscallblock</text>
</g>
<!-- Grunning&#45;&gt;Gdead -->
<g id="edge20" class="edge"><title>Grunning&#45;&gt;Gdead</title>
<path fill="none" stroke="black" d="M621.44,-342.372C550.583,-384.168 396.942,-474.797 326.136,-516.563"/>
<polygon fill="black" stroke="black" points="323.95,-513.789 317.115,-521.884 327.507,-519.818 323.95,-513.789"/>
<text text-anchor="middle" x="459.853" y="-468.248" font-family="Times,serif" font-size="14.00">goexit0</text>
</g>
<!-- Gcopystack -->
<g id="node8" class="node"><title>Gcopystack</title>
<ellipse fill="none" stroke="black" cx="888.652" cy="-375.448" rx="51.7088" ry="51.7088"/>
<text text-anchor="middle" x="888.652" y="-371.248" font-family="Times,serif" font-size="14.00">Gcopystack</text>
</g>
<!-- Grunning&#45;&gt;Gcopystack -->
<g id="edge27" class="edge"><title>Grunning&#45;&gt;Gcopystack</title>
<path fill="none" stroke="black" d="M690.144,-352.636C699.371,-360.612 710.158,-368.112 721.611,-372.448 754.943,-385.07 794.802,-386.201 827.111,-383.996"/>
<polygon fill="black" stroke="black" points="827.632,-387.466 837.318,-383.174 827.07,-380.488 827.632,-387.466"/>
<text text-anchor="middle" x="770.204" y="-388.248" font-family="Times,serif" font-size="14.00">newstack</text>
</g>
<!-- Gsyscall&#45;&gt;Grunnable -->
<g id="edge8" class="edge"><title>Gsyscall&#45;&gt;Grunnable</title>
<path fill="none" stroke="black" d="M848.777,-527.937C814.05,-533.635 762.499,-537.365 721.611,-520.448 607.681,-473.312 590.851,-428.867 525.286,-324.448 500.3,-284.656 483.517,-233.933 473.36,-195.667"/>
<polygon fill="black" stroke="black" points="476.682,-194.532 470.795,-185.724 469.904,-196.281 476.682,-194.532"/>
<text text-anchor="middle" x="659.607" y="-516.248" font-family="Times,serif" font-size="14.00">exitsyscall0</text>
</g>
<!-- Gsyscall&#45;&gt;Grunning -->
<g id="edge15" class="edge"><title>Gsyscall&#45;&gt;Grunning</title>
<path fill="none" stroke="black" d="M857.408,-493.5C845.937,-484.767 832.359,-475.672 818.798,-469.448 778.455,-450.935 756.233,-474.225 721.611,-446.448 698.498,-427.905 683.563,-398.444 674.26,-372.671"/>
<polygon fill="black" stroke="black" points="677.504,-371.341 670.964,-363.005 670.878,-373.599 677.504,-371.341"/>
<text text-anchor="middle" x="770.204" y="-472.248" font-family="Times,serif" font-size="14.00">exitsyscall</text>
</g>
<!-- Gsyscall&#45;&gt;Gdead -->
<g id="edge22" class="edge"><title>Gsyscall&#45;&gt;Gdead</title>
<path fill="none" stroke="black" d="M850.278,-533.698C840.207,-536.898 829.213,-539.825 818.798,-541.448 776.119,-548.101 764.805,-541.598 721.611,-541.448 578.693,-540.953 409.22,-539.536 331.645,-538.842"/>
<polygon fill="black" stroke="black" points="331.352,-535.339 321.321,-538.749 331.289,-542.339 331.352,-535.339"/>
<text text-anchor="middle" x="561.445" y="-544.248" font-family="Times,serif" font-size="14.00">dropm</text>
</g>
<!-- Gdead&#45;&gt;Grunnable -->
<g id="edge9" class="edge"><title>Gdead&#45;&gt;Grunnable</title>
<path fill="none" stroke="black" d="M301.937,-508.131C330.668,-440.625 400.217,-277.219 436.297,-192.447"/>
<polygon fill="black" stroke="black" points="439.619,-193.578 440.315,-183.006 433.178,-190.836 439.619,-193.578"/>
<text text-anchor="middle" x="366.821" y="-412.248" font-family="Times,serif" font-size="14.00">newproc1</text>
</g>
<!-- Gdead&#45;&gt;Gsyscall -->
<g id="edge26" class="edge"><title>Gdead&#45;&gt;Gsyscall</title>
<path fill="none" stroke="black" d="M319.528,-548.926C325.961,-550.75 332.758,-552.397 339.221,-553.448 549.605,-587.688 612.627,-611.559 818.798,-557.448 827.914,-555.056 837.12,-551.19 845.706,-546.82"/>
<polygon fill="black" stroke="black" points="847.617,-549.766 854.744,-541.926 844.283,-543.61 847.617,-549.766"/>
<text text-anchor="middle" x="561.445" y="-592.248" font-family="Times,serif" font-size="14.00">needm</text>
</g>
<!-- Gcopystack&#45;&gt;Grunning -->
<g id="edge16" class="edge"><title>Gcopystack&#45;&gt;Grunning</title>
<path fill="none" stroke="black" d="M838.022,-363.134C831.557,-361.548 825.021,-359.953 818.798,-358.448 775.653,-348.017 764.76,-345.859 721.611,-335.448 718.632,-334.73 715.573,-333.988 712.486,-333.237"/>
<polygon fill="black" stroke="black" points="713.145,-329.796 702.6,-330.825 711.485,-336.596 713.145,-329.796"/>
<text text-anchor="middle" x="770.204" y="-361.248" font-family="Times,serif" font-size="14.00">newstack</text>
</g>
</g>
</svg>
