<?xml version="1.0" encoding="UTF-8" standalone="no"?>
<!DOCTYPE svg PUBLIC "-//W3C//DTD SVG 1.1//EN"
 "http://www.w3.org/Graphics/SVG/1.1/DTD/svg11.dtd">
<!-- Generated by graphviz version 2.38.0 (20140413.2041)
 -->
<!-- Title: finite_state_machine Pages: 1 -->
<svg width="397pt" height="360pt"
 viewBox="0.00 0.00 397.08 360.00" xmlns="http://www.w3.org/2000/svg" xmlns:xlink="http://www.w3.org/1999/xlink">
<g id="graph0" class="graph" transform="scale(0.322216 0.322216) rotate(0) translate(4 1113.26)">
<title>finite_state_machine</title>
<polygon fill="white" stroke="none" points="-4,4 -4,-1113.26 1228.35,-1113.26 1228.35,4 -4,4"/>
<!-- Gdead -->
<g id="node1" class="node"><title>Gdead</title>
<ellipse fill="none" stroke="black" cx="339.079" cy="-225.262" rx="33.3548" ry="33.3548"/>
<ellipse fill="none" stroke="black" cx="339.079" cy="-225.262" rx="37.3751" ry="37.3751"/>
<text text-anchor="middle" x="339.079" y="-221.062" font-family="Times,serif" font-size="14.00">Gdead</text>
</g>
<!-- Grunnable -->
<g id="node5" class="node"><title>Grunnable</title>
<ellipse fill="none" stroke="black" cx="574.228" cy="-763.262" rx="47.365" ry="47.365"/>
<text text-anchor="middle" x="574.228" y="-759.062" font-family="Times,serif" font-size="14.00">Grunnable</text>
</g>
<!-- Gdead&#45;&gt;Grunnable -->
<g id="edge10" class="edge"><title>Gdead&#45;&gt;Grunnable</title>
<path fill="none" stroke="black" d="M354.84,-259.324C394.378,-350.56 502.886,-600.945 550.418,-710.626"/>
<polygon fill="black" stroke="black" points="547.227,-712.066 554.415,-719.85 553.65,-709.283 547.227,-712.066"/>
<text text-anchor="middle" x="445.388" y="-577.062" font-family="Times,serif" font-size="14.00">runtime.newproc1</text>
</g>
<!-- Gsyscall -->
<g id="node7" class="node"><title>Gsyscall</title>
<ellipse fill="none" stroke="black" cx="1172.5" cy="-202.262" rx="40.6248" ry="40.6248"/>
<text text-anchor="middle" x="1172.5" y="-198.062" font-family="Times,serif" font-size="14.00">Gsyscall</text>
</g>
<!-- Gdead&#45;&gt;Gsyscall -->
<g id="edge34" class="edge"><title>Gdead&#45;&gt;Gsyscall</title>
<path fill="none" stroke="black" d="M371.957,-207.365C406.022,-189.348 462.209,-162.765 514.511,-152.262 574.753,-140.165 956.856,-106.512 1102.64,-153.262 1113.44,-156.726 1124,-162.569 1133.48,-169.036"/>
<polygon fill="black" stroke="black" points="1131.7,-172.071 1141.86,-175.101 1135.81,-166.401 1131.7,-172.071"/>
<text text-anchor="middle" x="711.627" y="-140.062" font-family="Times,serif" font-size="14.00">runtime.needm</text>
</g>
<!-- start -->
<g id="node2" class="node"><title>start</title>
<ellipse fill="black" stroke="black" cx="1.8" cy="-225.262" rx="1.8" ry="1.8"/>
</g>
<!-- Gidle -->
<g id="node3" class="node"><title>Gidle</title>
<ellipse fill="none" stroke="black" cx="99.6784" cy="-225.262" rx="29.5104" ry="29.5104"/>
<text text-anchor="middle" x="99.6784" y="-221.062" font-family="Times,serif" font-size="14.00">Gidle</text>
</g>
<!-- start&#45;&gt;Gidle -->
<g id="edge1" class="edge"><title>start&#45;&gt;Gidle</title>
<path fill="none" stroke="black" d="M3.87676,-225.262C9.46819,-225.262 35.836,-225.262 59.3476,-225.262"/>
<polygon fill="black" stroke="black" points="59.5212,-228.762 69.5212,-225.262 59.5212,-221.762 59.5212,-228.762"/>
<text text-anchor="middle" x="36.7621" y="-228.062" font-family="Times,serif" font-size="14.00">newg</text>
</g>
<!-- Gidle&#45;&gt;Gdead -->
<g id="edge29" class="edge"><title>Gidle&#45;&gt;Gdead</title>
<path fill="none" stroke="black" d="M129.788,-225.262C170.161,-225.262 243.591,-225.262 291.598,-225.262"/>
<polygon fill="black" stroke="black" points="291.732,-228.762 301.732,-225.262 291.732,-221.762 291.732,-228.762"/>
<text text-anchor="middle" x="215.662" y="-228.062" font-family="Times,serif" font-size="14.00">runtime.oneNewExtraM</text>
</g>
<!-- Gidle&#45;&gt;Gdead -->
<g id="edge31" class="edge"><title>Gidle&#45;&gt;Gdead</title>
<path fill="none" stroke="black" d="M127.382,-213.055C133.817,-210.657 140.762,-208.502 147.433,-207.262 207.06,-196.18 224.021,-197.578 283.892,-207.262 287.323,-207.817 290.83,-208.557 294.329,-209.422"/>
<polygon fill="black" stroke="black" points="293.524,-212.831 304.096,-212.139 295.4,-206.087 293.524,-212.831"/>
<text text-anchor="middle" x="215.662" y="-210.062" font-family="Times,serif" font-size="14.00">runtime.newproc1</text>
</g>
<!-- Gwaiting -->
<g id="node4" class="node"><title>Gwaiting</title>
<ellipse fill="none" stroke="black" cx="1172.5" cy="-672.262" rx="43.0387" ry="43.0387"/>
<text text-anchor="middle" x="1172.5" y="-668.062" font-family="Times,serif" font-size="14.00">Gwaiting</text>
</g>
<!-- Gwaiting&#45;&gt;Grunnable -->
<g id="edge2" class="edge"><title>Gwaiting&#45;&gt;Grunnable</title>
<path fill="none" stroke="black" d="M1141.09,-701.904C1129.91,-710.883 1116.56,-719.596 1102.64,-724.262 1035.72,-746.693 1007.62,-754.487 943.835,-724.262 932.419,-718.852 937.252,-707.672 925.835,-702.262 871.002,-676.277 849.796,-697.449 789.308,-702.262 727.675,-707.166 710.74,-705.132 651.946,-724.262 642.877,-727.213 633.561,-731.116 624.686,-735.314"/>
<polygon fill="black" stroke="black" points="623.055,-732.216 615.624,-739.768 626.143,-738.498 623.055,-732.216"/>
<text text-anchor="middle" x="857.572" y="-706.062" font-family="Times,serif" font-size="14.00">findRunnableGCWorker</text>
</g>
<!-- Gwaiting&#45;&gt;Grunnable -->
<g id="edge3" class="edge"><title>Gwaiting&#45;&gt;Grunnable</title>
<path fill="none" stroke="black" d="M1168.97,-715.191C1163.23,-796.044 1146.17,-966.051 1102.64,-1002.26 948.647,-1130.36 812.054,-1122.63 651.946,-1002.26 596.2,-960.352 580.171,-877.438 575.987,-821.165"/>
<polygon fill="black" stroke="black" points="579.467,-820.741 575.337,-810.984 572.481,-821.187 579.467,-820.741"/>
<text text-anchor="middle" x="857.572" y="-1098.06" font-family="Times,serif" font-size="14.00">runtime.ready</text>
</g>
<!-- Gwaiting&#45;&gt;Grunnable -->
<g id="edge4" class="edge"><title>Gwaiting&#45;&gt;Grunnable</title>
<path fill="none" stroke="black" d="M1167.24,-715.084C1159.22,-785.977 1139.3,-922.854 1102.64,-952.262 1024.52,-1014.94 734.2,-1009.4 651.946,-952.262 609.18,-922.552 590.231,-864.616 581.849,-820.681"/>
<polygon fill="black" stroke="black" points="585.27,-819.924 580.076,-810.689 578.377,-821.147 585.27,-819.924"/>
<text text-anchor="middle" x="857.572" y="-999.062" font-family="Times,serif" font-size="14.00">runtime.findrunnable</text>
</g>
<!-- Gwaiting&#45;&gt;Grunnable -->
<g id="edge5" class="edge"><title>Gwaiting&#45;&gt;Grunnable</title>
<path fill="none" stroke="black" d="M1164.78,-715.026C1154.4,-775.051 1132.48,-879.521 1102.64,-902.262 1022.99,-962.975 737.445,-954.423 651.946,-902.262 621.69,-883.803 602.473,-848.82 590.839,-818.568"/>
<polygon fill="black" stroke="black" points="594.041,-817.133 587.324,-808.94 587.465,-819.534 594.041,-817.133"/>
<text text-anchor="middle" x="857.572" y="-947.062" font-family="Times,serif" font-size="14.00">runtime.injectglist</text>
</g>
<!-- Gwaiting&#45;&gt;Grunnable -->
<g id="edge6" class="edge"><title>Gwaiting&#45;&gt;Grunnable</title>
<path fill="none" stroke="black" d="M1168.28,-715.406C1162.55,-758.033 1146.67,-821.225 1102.64,-852.262 1020.78,-909.968 742.379,-895.306 651.946,-852.262 633.437,-843.452 617.638,-827.846 605.274,-812.137"/>
<polygon fill="black" stroke="black" points="607.928,-809.843 599.125,-803.947 602.331,-814.046 607.928,-809.843"/>
<text text-anchor="middle" x="857.572" y="-892.062" font-family="Times,serif" font-size="14.00">runtime.schedule</text>
</g>
<!-- Gwaiting&#45;&gt;Grunnable -->
<g id="edge7" class="edge"><title>Gwaiting&#45;&gt;Grunnable</title>
<path fill="none" stroke="black" d="M1161.46,-714.043C1151.81,-744.222 1133.93,-782.94 1102.64,-802.262 1017.42,-854.881 748.994,-827.013 651.946,-802.262 642.705,-799.905 633.303,-796.299 624.395,-792.213"/>
<polygon fill="black" stroke="black" points="625.843,-789.026 615.317,-787.814 622.79,-795.325 625.843,-789.026"/>
<text text-anchor="middle" x="857.572" y="-835.062" font-family="Times,serif" font-size="14.00">runtime.park_m</text>
</g>
<!-- Gwaiting&#45;&gt;Grunnable -->
<g id="edge11" class="edge"><title>Gwaiting&#45;&gt;Grunnable</title>
<path fill="none" stroke="black" d="M1155.96,-712.074C1144.81,-734.725 1127.36,-761.127 1102.64,-774.262 1022.49,-816.862 750.25,-786.896 631.448,-771.2"/>
<polygon fill="black" stroke="black" points="631.835,-767.72 621.46,-769.866 630.909,-774.659 631.835,-767.72"/>
<text text-anchor="middle" x="857.572" y="-799.062" font-family="Times,serif" font-size="14.00">runtime.procresize</text>
</g>
<!-- Gwaiting&#45;&gt;Grunnable -->
<g id="edge12" class="edge"><title>Gwaiting&#45;&gt;Grunnable</title>
<path fill="none" stroke="black" d="M1148.77,-708.237C1137.02,-723.491 1121.24,-739.698 1102.64,-748.262 1060.86,-767.502 759.981,-765.785 632.29,-764.152"/>
<polygon fill="black" stroke="black" points="631.987,-760.648 621.941,-764.015 631.894,-767.647 631.987,-760.648"/>
<text text-anchor="middle" x="857.572" y="-768.062" font-family="Times,serif" font-size="14.00">runtime.checkdead</text>
</g>
<!-- Grunning -->
<g id="node6" class="node"><title>Grunning</title>
<ellipse fill="none" stroke="black" cx="857.572" cy="-431.262" rx="44.0078" ry="44.0078"/>
<text text-anchor="middle" x="857.572" y="-427.062" font-family="Times,serif" font-size="14.00">Grunning</text>
</g>
<!-- Gwaiting&#45;&gt;Grunning -->
<g id="edge14" class="edge"><title>Gwaiting&#45;&gt;Grunning</title>
<path fill="none" stroke="black" d="M1129.29,-670.555C1067.53,-667.703 958.261,-661.181 943.835,-650.262 892.14,-611.132 871.77,-536.199 863.754,-484.987"/>
<polygon fill="black" stroke="black" points="867.216,-484.47 862.31,-475.079 860.289,-485.479 867.216,-484.47"/>
<text text-anchor="middle" x="1023.24" y="-673.062" font-family="Times,serif" font-size="14.00">runtime.gcMarkTermination</text>
</g>
<!-- Gwaiting&#45;&gt;Grunning -->
<g id="edge15" class="edge"><title>Gwaiting&#45;&gt;Grunning</title>
<path fill="none" stroke="black" d="M1136.36,-648.176C1125.92,-642.052 1114.18,-636.12 1102.64,-632.262 1035.23,-609.721 1001.45,-654.903 943.835,-613.262 901.816,-582.89 879.85,-526.461 868.815,-484.455"/>
<polygon fill="black" stroke="black" points="872.185,-483.506 866.367,-474.652 865.394,-485.202 872.185,-483.506"/>
<text text-anchor="middle" x="1023.24" y="-635.062" font-family="Times,serif" font-size="14.00">runtime.gcBgMarkWorker</text>
</g>
<!-- Gwaiting&#45;&gt;Grunning -->
<g id="edge16" class="edge"><title>Gwaiting&#45;&gt;Grunning</title>
<path fill="none" stroke="black" d="M1148.18,-636.187C1136.41,-621.007 1120.77,-604.705 1102.64,-595.262 1039.59,-562.429 1003.33,-615.167 943.835,-576.262 910.579,-554.514 888.587,-514.92 875.281,-482.596"/>
<polygon fill="black" stroke="black" points="878.522,-481.274 871.592,-473.261 872.012,-483.847 878.522,-481.274"/>
<text text-anchor="middle" x="1023.24" y="-598.062" font-family="Times,serif" font-size="14.00">runtime.markroot</text>
</g>
<!-- Gwaiting&#45;&gt;Grunning -->
<g id="edge17" class="edge"><title>Gwaiting&#45;&gt;Grunning</title>
<path fill="none" stroke="black" d="M1157.71,-631.841C1146.84,-606.425 1129.06,-575.317 1102.64,-558.262 1042.92,-519.708 1005.85,-574.012 943.835,-539.262 918.907,-525.292 898.658,-500.797 884.159,-478.663"/>
<polygon fill="black" stroke="black" points="886.99,-476.59 878.692,-470.003 881.071,-480.327 886.99,-476.59"/>
<text text-anchor="middle" x="1023.24" y="-561.062" font-family="Times,serif" font-size="14.00">runtime.gcAssistAlloc1</text>
</g>
<!-- Gwaiting&#45;&gt;Grunning -->
<g id="edge18" class="edge"><title>Gwaiting&#45;&gt;Grunning</title>
<path fill="none" stroke="black" d="M1163.98,-629.846C1155.41,-594.853 1137.77,-546.929 1102.64,-521.262 1045.25,-479.324 1009.12,-530.383 943.835,-502.262 926.221,-494.675 909.411,-482.25 895.444,-469.898"/>
<polygon fill="black" stroke="black" points="897.73,-467.245 887.99,-463.075 893.003,-472.408 897.73,-467.245"/>
<text text-anchor="middle" x="1023.24" y="-524.062" font-family="Times,serif" font-size="14.00">runtime.newstack</text>
</g>
<!-- Grunnable&#45;&gt;Grunning -->
<g id="edge13" class="edge"><title>Grunnable&#45;&gt;Grunning</title>
<path fill="none" stroke="black" d="M577.454,-715.653C582.539,-659.7 599.007,-567.271 651.946,-510.262 691.779,-467.366 757.556,-447.501 803.757,-438.475"/>
<polygon fill="black" stroke="black" points="804.395,-441.916 813.593,-436.658 803.123,-435.033 804.395,-441.916"/>
<text text-anchor="middle" x="711.627" y="-513.062" font-family="Times,serif" font-size="14.00">runtime.execute</text>
</g>
<!-- Grunning&#45;&gt;Gdead -->
<g id="edge28" class="edge"><title>Grunning&#45;&gt;Gdead</title>
<path fill="none" stroke="black" d="M816.258,-415.183C720.803,-377.111 481.621,-281.715 383.309,-242.504"/>
<polygon fill="black" stroke="black" points="384.552,-239.232 373.967,-238.778 381.959,-245.734 384.552,-239.232"/>
<text text-anchor="middle" x="574.228" y="-345.062" font-family="Times,serif" font-size="14.00">runtime.goexit0</text>
</g>
<!-- Grunning&#45;&gt;Gwaiting -->
<g id="edge22" class="edge"><title>Grunning&#45;&gt;Gwaiting</title>
<path fill="none" stroke="black" d="M866.661,-474.371C880.045,-540.505 908.829,-662.024 943.835,-687.262 995.796,-724.723 1072.96,-708.869 1122.75,-692.11"/>
<polygon fill="black" stroke="black" points="1124.04,-695.366 1132.32,-688.762 1121.73,-688.758 1124.04,-695.366"/>
<text text-anchor="middle" x="1023.24" y="-713.062" font-family="Times,serif" font-size="14.00">runtime.markroot</text>
</g>
<!-- Grunning&#45;&gt;Gwaiting -->
<g id="edge23" class="edge"><title>Grunning&#45;&gt;Gwaiting</title>
<path fill="none" stroke="black" d="M897.764,-449.372C912.003,-455.283 928.392,-461.331 943.835,-465.262 978.279,-474.03 1074.77,-462.208 1102.64,-484.262 1143.65,-516.709 1160.24,-575.945 1166.95,-619.278"/>
<polygon fill="black" stroke="black" points="1163.51,-619.962 1168.38,-629.372 1170.44,-618.979 1163.51,-619.962"/>
<text text-anchor="middle" x="1023.24" y="-487.062" font-family="Times,serif" font-size="14.00">runtime.gcAssistAlloc1</text>
</g>
<!-- Grunning&#45;&gt;Gwaiting -->
<g id="edge24" class="edge"><title>Grunning&#45;&gt;Gwaiting</title>
<path fill="none" stroke="black" d="M901.728,-431.467C967.615,-432.168 1087.31,-435.121 1102.64,-447.262 1154.14,-488.03 1168.11,-566.34 1171.38,-618.955"/>
<polygon fill="black" stroke="black" points="1167.89,-619.308 1171.9,-629.116 1174.88,-618.951 1167.89,-619.308"/>
<text text-anchor="middle" x="1023.24" y="-450.062" font-family="Times,serif" font-size="14.00">runtime.park_m</text>
</g>
<!-- Grunning&#45;&gt;Gwaiting -->
<g id="edge25" class="edge"><title>Grunning&#45;&gt;Gwaiting</title>
<path fill="none" stroke="black" d="M900.785,-421.815C962.165,-409.14 1072.07,-390.781 1102.64,-414.262 1134.94,-439.075 1155.34,-551.393 1164.96,-619.389"/>
<polygon fill="black" stroke="black" points="1161.52,-620.066 1166.36,-629.493 1168.45,-619.108 1161.52,-620.066"/>
<text text-anchor="middle" x="1023.24" y="-417.062" font-family="Times,serif" font-size="14.00">runtime.gcMarkTermination</text>
</g>
<!-- Grunning&#45;&gt;Gwaiting -->
<g id="edge26" class="edge"><title>Grunning&#45;&gt;Gwaiting</title>
<path fill="none" stroke="black" d="M895.516,-408.065C947.385,-378.773 1042.2,-337.607 1102.64,-385.262 1138.91,-413.858 1158.24,-544.496 1166.51,-619.284"/>
<polygon fill="black" stroke="black" points="1163.05,-619.881 1167.6,-629.45 1170.01,-619.133 1163.05,-619.881"/>
<text text-anchor="middle" x="1023.24" y="-388.062" font-family="Times,serif" font-size="14.00">runtime.gcBgMarkWorker</text>
</g>
<!-- Grunning&#45;&gt;Gwaiting -->
<g id="edge27" class="edge"><title>Grunning&#45;&gt;Gwaiting</title>
<path fill="none" stroke="black" d="M883.373,-395.548C898.461,-377.07 919.496,-356.322 943.835,-346.262 1009.06,-319.302 1047.82,-301.809 1102.64,-346.262 1144.26,-380.012 1161.7,-535.66 1168.16,-619.089"/>
<polygon fill="black" stroke="black" points="1164.68,-619.426 1168.92,-629.137 1171.66,-618.904 1164.68,-619.426"/>
<text text-anchor="middle" x="1023.24" y="-349.062" font-family="Times,serif" font-size="14.00">runtime.newstack</text>
</g>
<!-- Grunning&#45;&gt;Grunnable -->
<g id="edge8" class="edge"><title>Grunning&#45;&gt;Grunnable</title>
<path fill="none" stroke="black" d="M826.499,-463.08C785.756,-506.595 711.293,-587.576 651.946,-660.262 637.282,-678.221 621.873,-698.585 608.744,-716.436"/>
<polygon fill="black" stroke="black" points="605.576,-714.839 602.495,-724.976 611.225,-718.973 605.576,-714.839"/>
<text text-anchor="middle" x="711.627" y="-663.062" font-family="Times,serif" font-size="14.00">runtime.goschedImpl</text>
</g>
<!-- Grunning&#45;&gt;Gsyscall -->
<g id="edge32" class="edge"><title>Grunning&#45;&gt;Gsyscall</title>
<path fill="none" stroke="black" d="M874.731,-390.687C888.575,-361.469 911.443,-323.728 943.835,-303.262 1004.13,-265.168 1039.91,-314.184 1102.64,-280.262 1118.58,-271.643 1132.6,-257.803 1143.76,-244.156"/>
<polygon fill="black" stroke="black" points="1146.59,-246.218 1149.99,-236.184 1141.07,-241.907 1146.59,-246.218"/>
<text text-anchor="middle" x="1023.24" y="-306.062" font-family="Times,serif" font-size="14.00">runtime.reentersyscall</text>
</g>
<!-- Grunning&#45;&gt;Gsyscall -->
<g id="edge33" class="edge"><title>Grunning&#45;&gt;Gsyscall</title>
<path fill="none" stroke="black" d="M877.894,-391.831C902.129,-342.541 940.892,-264.325 943.835,-262.262 1002.05,-221.464 1035.35,-266.167 1102.64,-243.262 1111.93,-240.101 1121.32,-235.571 1130.06,-230.666"/>
<polygon fill="black" stroke="black" points="1132.06,-233.552 1138.9,-225.461 1128.5,-227.521 1132.06,-233.552"/>
<text text-anchor="middle" x="1023.24" y="-265.062" font-family="Times,serif" font-size="14.00">runtime.entersyscallblock</text>
</g>
<!-- Gcopystack -->
<g id="node8" class="node"><title>Gcopystack</title>
<ellipse fill="none" stroke="black" cx="1172.5" cy="-66.2619" rx="51.7088" ry="51.7088"/>
<text text-anchor="middle" x="1172.5" y="-62.0619" font-family="Times,serif" font-size="14.00">Gcopystack</text>
</g>
<!-- Grunning&#45;&gt;Gcopystack -->
<g id="edge35" class="edge"><title>Grunning&#45;&gt;Gcopystack</title>
<path fill="none" stroke="black" d="M881.6,-394.113C896.95,-367.383 916.043,-329.904 925.835,-294.262 932.479,-270.078 925.52,-86.3953 943.835,-69.2619 967.166,-47.4366 1051.8,-51.9778 1111.02,-58.29"/>
<polygon fill="black" stroke="black" points="1110.71,-61.776 1121.03,-59.3985 1111.48,-54.8186 1110.71,-61.776"/>
<text text-anchor="middle" x="1023.24" y="-72.0619" font-family="Times,serif" font-size="14.00">runtime.newstack</text>
</g>
<!-- Gsyscall&#45;&gt;Gdead -->
<g id="edge30" class="edge"><title>Gsyscall&#45;&gt;Gdead</title>
<path fill="none" stroke="black" d="M1151.94,-167.241C1140.12,-149.627 1123.32,-129.824 1102.64,-119.262 1013.34,-73.6445 752.129,-92.993 651.946,-97.2619 537.109,-102.155 489.666,-55.1509 394.266,-119.262 373.495,-133.22 360.25,-157.688 352.059,-179.6"/>
<polygon fill="black" stroke="black" points="348.728,-178.523 348.747,-189.118 355.339,-180.824 348.728,-178.523"/>
<text text-anchor="middle" x="711.627" y="-100.062" font-family="Times,serif" font-size="14.00">runtime.dropm</text>
</g>
<!-- Gsyscall&#45;&gt;Grunnable -->
<g id="edge9" class="edge"><title>Gsyscall&#45;&gt;Grunnable</title>
<path fill="none" stroke="black" d="M1136.32,-183.641C1125.79,-178.977 1114,-174.629 1102.64,-172.262 1033.55,-157.863 1009.53,-146.466 943.835,-172.262 902.642,-188.436 674.276,-405.054 651.946,-443.262 603.345,-526.42 585.485,-638.837 578.954,-705.907"/>
<polygon fill="black" stroke="black" points="575.469,-705.588 578.036,-715.868 582.439,-706.232 575.469,-705.588"/>
<text text-anchor="middle" x="857.572" y="-303.062" font-family="Times,serif" font-size="14.00">runtime.exitsyscall0</text>
</g>
<!-- Gsyscall&#45;&gt;Grunning -->
<g id="edge19" class="edge"><title>Gsyscall&#45;&gt;Grunning</title>
<path fill="none" stroke="black" d="M1131.9,-204.574C1070.47,-208.511 957.803,-217.272 943.835,-229.262 921.09,-248.786 936.487,-266.242 925.835,-294.262 914.128,-325.058 897.926,-358.258 884.356,-384.261"/>
<polygon fill="black" stroke="black" points="881.241,-382.664 879.678,-393.143 887.435,-385.927 881.241,-382.664"/>
<text text-anchor="middle" x="1023.24" y="-232.062" font-family="Times,serif" font-size="14.00">runtime.exitsyscall</text>
</g>
<!-- Gcopystack&#45;&gt;Grunning -->
<g id="edge20" class="edge"><title>Gcopystack&#45;&gt;Grunning</title>
<path fill="none" stroke="black" d="M1122.03,-79.0124C1069.14,-95.3555 987.062,-129.046 943.835,-189.262 916.224,-227.725 940.418,-249.216 925.835,-294.262 915.688,-325.606 899.53,-358.822 885.594,-384.697"/>
<polygon fill="black" stroke="black" points="882.492,-383.074 880.77,-393.528 888.636,-386.429 882.492,-383.074"/>
<text text-anchor="middle" x="1023.24" y="-192.062" font-family="Times,serif" font-size="14.00">runtime.newstack</text>
</g>
<!-- Gscanrunning -->
<g id="node9" class="node"><title>Gscanrunning</title>
<ellipse fill="none" stroke="black" cx="574.228" cy="-221.262" rx="59.9357" ry="59.9357"/>
<text text-anchor="middle" x="574.228" y="-217.062" font-family="Times,serif" font-size="14.00">Gscanrunning</text>
</g>
<!-- Gscanrunning&#45;&gt;Grunning -->
<g id="edge21" class="edge"><title>Gscanrunning&#45;&gt;Grunning</title>
<path fill="none" stroke="black" d="M633.617,-230.521C675.602,-239.619 731.587,-257.014 771.308,-289.262 800.947,-313.325 822.776,-350.622 836.925,-380.954"/>
<polygon fill="black" stroke="black" points="833.76,-382.451 841.069,-390.121 840.139,-379.567 833.76,-382.451"/>
<text text-anchor="middle" x="711.627" y="-292.062" font-family="Times,serif" font-size="14.00">runtime.scang</text>
</g>
<!-- Gany -->
<g id="node10" class="node"><title>Gany</title>
<ellipse fill="none" stroke="black" cx="857.572" cy="-29.2619" rx="29.0257" ry="29.0257"/>
<text text-anchor="middle" x="857.572" y="-25.0619" font-family="Times,serif" font-size="14.00">Gany</text>
</g>
<!-- Gany&#45;&gt;Gcopystack -->
<g id="edge36" class="edge"><title>Gany&#45;&gt;Gcopystack</title>
<path fill="none" stroke="black" d="M886.549,-25.1458C932.468,-19.323 1026.35,-11.3545 1102.64,-30.2619 1107.96,-31.5801 1113.32,-33.3865 1118.59,-35.4929"/>
<polygon fill="black" stroke="black" points="1117.35,-38.7723 1127.92,-39.568 1120.15,-32.3576 1117.35,-38.7723"/>
<text text-anchor="middle" x="1023.24" y="-33.0619" font-family="Times,serif" font-size="14.00">runtime.casgcopystack</text>
</g>
</g>
</svg>
