<?xml version="1.0" encoding="UTF-8" standalone="no"?>
<!DOCTYPE svg PUBLIC "-//W3C//DTD SVG 1.1//EN"
 "http://www.w3.org/Graphics/SVG/1.1/DTD/svg11.dtd">
<!-- Generated by graphviz version 2.38.0 (20140413.2041)
 -->
<!-- Title: finite_state_machine Pages: 1 -->
<svg width="414pt" height="360pt"
 viewBox="0.00 0.00 413.74 360.00" xmlns="http://www.w3.org/2000/svg" xmlns:xlink="http://www.w3.org/1999/xlink">
<g id="graph0" class="graph" transform="scale(0.909091 0.909091) rotate(0) translate(4 392)">
<title>finite_state_machine</title>
<polygon fill="white" stroke="none" points="-4,4 -4,-392 451.117,-392 451.117,4 -4,4"/>
<!-- Pany -->
<g id="node1" class="node"><title>Pany</title>
<ellipse fill="none" stroke="black" cx="27.7938" cy="-197" rx="27.589" ry="18"/>
<text text-anchor="middle" x="27.7938" y="-192.8" font-family="Times,serif" font-size="14.00">Pany</text>
</g>
<!-- Pidle -->
<g id="node2" class="node"><title>Pidle</title>
<ellipse fill="none" stroke="black" cx="207.641" cy="-334" rx="28.0736" ry="18"/>
<text text-anchor="middle" x="207.641" y="-329.8" font-family="Times,serif" font-size="14.00">Pidle</text>
</g>
<!-- Pany&#45;&gt;Pidle -->
<g id="edge1" class="edge"><title>Pany&#45;&gt;Pidle</title>
<path fill="none" stroke="black" d="M28.9854,-215.013C30.3775,-244.183 37.8139,-301.187 73.5875,-328 101.272,-348.75 142.047,-347.294 171.153,-342.501"/>
<polygon fill="black" stroke="black" points="172.108,-345.884 181.303,-340.62 170.832,-339.001 172.108,-345.884"/>
<text text-anchor="middle" x="112.067" y="-347.8" font-family="Times,serif" font-size="14.00">forEachP</text>
</g>
<!-- Pany&#45;&gt;Pidle -->
<g id="edge2" class="edge"><title>Pany&#45;&gt;Pidle</title>
<path fill="none" stroke="black" d="M32.4991,-215.122C37.832,-236.499 49.77,-271.579 73.5875,-291 100.892,-313.264 117.139,-298.812 150.546,-310 158.616,-312.702 167.144,-316.072 175.05,-319.424"/>
<polygon fill="black" stroke="black" points="173.745,-322.673 184.31,-323.458 176.54,-316.256 173.745,-322.673"/>
<text text-anchor="middle" x="112.067" y="-312.8" font-family="Times,serif" font-size="14.00">procresize</text>
</g>
<!-- Pany&#45;&gt;Pidle -->
<g id="edge3" class="edge"><title>Pany&#45;&gt;Pidle</title>
<path fill="none" stroke="black" d="M37.9472,-214.006C45.7523,-226.894 58.151,-244.032 73.5875,-254 103.184,-273.112 120.232,-255.048 150.546,-273 165.835,-282.054 179.427,-296.569 189.402,-309.168"/>
<polygon fill="black" stroke="black" points="186.879,-311.635 195.706,-317.495 192.46,-307.409 186.879,-311.635"/>
<text text-anchor="middle" x="112.067" y="-275.8" font-family="Times,serif" font-size="14.00">releasep</text>
</g>
<!-- Pany&#45;&gt;Pidle -->
<g id="edge4" class="edge"><title>Pany&#45;&gt;Pidle</title>
<path fill="none" stroke="black" d="M30.922,-215.043C35.9499,-254.196 49.9489,-344.895 73.5875,-363 104.072,-386.349 149.434,-368.396 178.523,-352.152"/>
<polygon fill="black" stroke="black" points="180.487,-355.058 187.356,-346.992 176.956,-349.014 180.487,-355.058"/>
<text text-anchor="middle" x="112.067" y="-376.8" font-family="Times,serif" font-size="14.00">retake</text>
</g>
<!-- Psyscall -->
<g id="node3" class="node"><title>Psyscall</title>
<ellipse fill="none" stroke="black" cx="207.641" cy="-164" rx="39.1887" ry="18"/>
<text text-anchor="middle" x="207.641" y="-159.8" font-family="Times,serif" font-size="14.00">Psyscall</text>
</g>
<!-- Pany&#45;&gt;Psyscall -->
<g id="edge8" class="edge"><title>Pany&#45;&gt;Psyscall</title>
<path fill="none" stroke="black" d="M54.6542,-192.202C82.5051,-187.034 127.36,-178.711 161.138,-172.443"/>
<polygon fill="black" stroke="black" points="162.04,-175.836 171.234,-170.57 160.763,-168.953 162.04,-175.836"/>
<text text-anchor="middle" x="112.067" y="-190.8" font-family="Times,serif" font-size="14.00">reentersyscall</text>
</g>
<!-- Prunning -->
<g id="node4" class="node"><title>Prunning</title>
<ellipse fill="none" stroke="black" cx="404.581" cy="-218" rx="42.5715" ry="18"/>
<text text-anchor="middle" x="404.581" y="-213.8" font-family="Times,serif" font-size="14.00">Prunning</text>
</g>
<!-- Pany&#45;&gt;Prunning -->
<g id="edge6" class="edge"><title>Pany&#45;&gt;Prunning</title>
<path fill="none" stroke="black" d="M44.5643,-211.528C52.6363,-218.067 62.9819,-225.165 73.5875,-229 170.042,-263.875 292.871,-244.626 358.088,-229.874"/>
<polygon fill="black" stroke="black" points="359.102,-233.232 368.047,-227.554 357.513,-226.414 359.102,-233.232"/>
<text text-anchor="middle" x="207.641" y="-250.8" font-family="Times,serif" font-size="14.00">procresize</text>
</g>
<!-- Pany&#45;&gt;Prunning -->
<g id="edge7" class="edge"><title>Pany&#45;&gt;Prunning</title>
<path fill="none" stroke="black" d="M54.7852,-201.569C60.933,-202.509 67.4779,-203.395 73.5875,-204 171.627,-213.709 286.705,-216.692 351.794,-217.604"/>
<polygon fill="black" stroke="black" points="351.757,-221.103 361.801,-217.733 351.847,-214.104 351.757,-221.103"/>
<text text-anchor="middle" x="207.641" y="-216.8" font-family="Times,serif" font-size="14.00">acquirep1</text>
</g>
<!-- Pgcstop -->
<g id="node5" class="node"><title>Pgcstop</title>
<ellipse fill="none" stroke="black" cx="404.581" cy="-91" rx="38.2284" ry="18"/>
<text text-anchor="middle" x="404.581" y="-86.8" font-family="Times,serif" font-size="14.00">Pgcstop</text>
</g>
<!-- Pany&#45;&gt;Pgcstop -->
<g id="edge10" class="edge"><title>Pany&#45;&gt;Pgcstop</title>
<path fill="none" stroke="black" d="M32.5967,-179.082C40.1379,-162.128 57.6382,-150.479 73.5875,-143 172.915,-96.4257 302.358,-75.8069 365.539,-78.4209"/>
<polygon fill="black" stroke="black" points="365.609,-81.9333 375.82,-79.1073 366.075,-74.9489 365.609,-81.9333"/>
</g>
<!-- Pany&#45;&gt;Pgcstop -->
<g id="edge11" class="edge"><title>Pany&#45;&gt;Pgcstop</title>
<path fill="none" stroke="black" d="M41.3399,-180.879C50.112,-173.75 62.2422,-166.32 73.5875,-161 168.389,-116.548 290.624,-95.7398 356.499,-90.1841"/>
<polygon fill="black" stroke="black" points="356.867,-93.6664 366.574,-89.4222 356.339,-86.6863 356.867,-93.6664"/>
</g>
<!-- Pany&#45;&gt;Pgcstop -->
<g id="edge12" class="edge"><title>Pany&#45;&gt;Pgcstop</title>
<path fill="none" stroke="black" d="M53.4011,-189.621C59.8275,-186.067 66.8461,-182.161 73.5875,-179 170.541,-133.539 296.187,-112.807 360.896,-101.385"/>
<polygon fill="black" stroke="black" points="361.514,-104.83 370.744,-99.6297 360.285,-97.939 361.514,-104.83"/>
</g>
<!-- Pany&#45;&gt;Pgcstop -->
<g id="edge13" class="edge"><title>Pany&#45;&gt;Pgcstop</title>
<path fill="none" stroke="black" d="M48.3732,-209.177C56.0415,-206.217 65.0374,-201.009 73.5875,-197 177.201,-148.416 313.584,-128.076 373.339,-109.293"/>
<polygon fill="black" stroke="black" points="374.574,-112.57 382.919,-106.044 372.325,-105.941 374.574,-112.57"/>
</g>
<!-- Pdead -->
<g id="node6" class="node"><title>Pdead</title>
<ellipse fill="none" stroke="black" cx="207.641" cy="-18" rx="31.9393" ry="18"/>
<text text-anchor="middle" x="207.641" y="-13.8" font-family="Times,serif" font-size="14.00">Pdead</text>
</g>
<!-- Pany&#45;&gt;Pdead -->
<g id="edge14" class="edge"><title>Pany&#45;&gt;Pdead</title>
<path fill="none" stroke="black" d="M28.8681,-178.674C30.0339,-147.548 37.0772,-84.3912 73.5875,-50 98.1544,-26.859 136.426,-19.5467 165.628,-17.6217"/>
<polygon fill="black" stroke="black" points="166.11,-21.103 175.934,-17.137 165.781,-14.1108 166.11,-21.103"/>
</g>
<!-- Psyscall&#45;&gt;Prunning -->
<g id="edge5" class="edge"><title>Psyscall&#45;&gt;Prunning</title>
<path fill="none" stroke="black" d="M245.761,-168.575C273.329,-172.583 311.61,-179.443 344.045,-190 352.076,-192.614 360.434,-196.053 368.261,-199.624"/>
<polygon fill="black" stroke="black" points="366.95,-202.876 377.486,-203.997 369.949,-196.551 366.95,-202.876"/>
<text text-anchor="middle" x="304.39" y="-192.8" font-family="Times,serif" font-size="14.00">exitsyscallfast</text>
</g>
<!-- Psyscall&#45;&gt;Pgcstop -->
<g id="edge9" class="edge"><title>Psyscall&#45;&gt;Pgcstop</title>
<path fill="none" stroke="black" d="M245.458,-159.084C273.382,-154.468 312.251,-146.106 344.045,-132 355.402,-126.961 366.879,-119.688 376.684,-112.662"/>
<polygon fill="black" stroke="black" points="378.886,-115.387 384.826,-106.614 374.712,-109.768 378.886,-115.387"/>
</g>
</g>
</svg>
